# xmcd
#
# Track frame offsets:
#      150
#      17676
#      36259
#      50166
#      62992
#      72770
#      89466
#      97185
#      120988
#      139923
#      153084
#      164489
#      179091
#      198146
#      210826
#      223692
# 
# Disc length: 3183 seconds
#
# Revision: 3
# Processed by: cddbd v1.4PL0 Copyright (c) Steve Scherf et al.
#
# Submitted via: FreeRIP 1.20
#
DISCID=e80c6d10
DTITLE=Michal Tucny - Michal Tucny
DYEAR=1900
DGENRE=country
TTITLE0=Mam Paru
TTITLE1=Bajecna Zenska
TTITLE2=Sundej z hodin Zavazni
TTITLE3=Snidane v travje
TTITLE4=Rovnou, tady rovnou
TTITLE5=Az prijde ten den
TTITLE6=Lodni zvon zvoni
TTITLE7=Kosmickej Vandr
TTITLE8=Vsichni jsou uz v Mexiku
TTITLE9=Je to zvlastni
TTITLE10=Vanocni
TTITLE11=Davej vinu dalkam
TTITLE12=Muj Kalendar
TTITLE13=Ja svetem tah jen tak s celtou
TTITLE14=Prodavac
TTITLE15=Pane Muj
EXTD=
EXTT0=
EXTT1=
EXTT2=
EXTT3=
EXTT4=
EXTT5=
EXTT6=
EXTT7=
EXTT8=
EXTT9=
EXTT10=
EXTT11=
EXTT12=
EXTT13=
EXTT14=
EXTT15=
PLAYORDER=
